<?xml version="1.0" standalone="no"?>
<!DOCTYPE svg PUBLIC "-//W3C//DTD SVG 20010904//EN"
 "http://www.w3.org/TR/2001/REC-SVG-20010904/DTD/svg10.dtd">
<svg version="1.0" xmlns="http://www.w3.org/2000/svg"
 width="1024.000000pt" height="1024.000000pt" viewBox="0 0 1024.000000 1024.000000"
 preserveAspectRatio="xMidYMid meet">

<g transform="translate(0.000000,1024.000000) scale(0.100000,-0.100000)"
fill="none" stroke="none">
<path fill="#00C897" stroke="#E2E8F0" stroke-width="24" stroke-linejoin="round" d="M4995 8942 c-172 -98 -1099 -637 -1760 -1024 -126 -74 -297 -174
-380 -223 -82 -48 -217 -127 -300 -175 -82 -48 -420 -244 -750 -435 -330 -191
-688 -398 -795 -460 -107 -62 -361 -208 -565 -325 -203 -117 -372 -214 -374
-216 -11 -11 50 -51 284 -190 138 -81 278 -164 312 -183 35 -20 63 -38 63 -41
0 -3 -24 -18 -53 -33 -182 -100 -587 -343 -587 -353 0 -15 37 -38 540 -341
201 -121 496 -300 655 -398 160 -98 358 -219 440 -268 83 -50 238 -144 345
-210 107 -66 348 -213 535 -327 600 -366 1330 -815 1521 -936 456 -288 998
-614 1021 -614 16 0 111 53 247 137 121 75 354 218 516 318 162 100 349 215
415 257 66 41 280 173 475 293 331 203 820 504 1058 651 244 152 344 214 1012
631 388 242 834 520 992 619 227 141 285 181 275 191 -14 14 -544 327 -594
351 -18 9 -33 18 -33 21 0 6 25 21 418 254 175 104 252 155 250 165 -2 9 -147
98 -323 200 -532 306 -1227 708 -1450 837 -115 67 -354 205 -530 307 -176 102
-549 319 -830 483 -280 164 -562 328 -625 365 -63 36 -284 165 -490 285 -652
380 -784 455 -800 455 -8 0 -69 -31 -135 -68z m184 -1106 c31 -18 259 -154
506 -301 248 -147 662 -394 920 -548 457 -272 1070 -637 1346 -801 l137 -82
-162 -96 c-88 -53 -458 -274 -821 -491 -824 -492 -1926 -1158 -1952 -1179 -9
-7 -60 18 -180 88 -161 94 -445 263 -451 269 -2 2 158 100 355 218 1280 768
1976 1186 1980 1190 2 3 -74 51 -169 107 -95 57 -337 201 -538 320 -201 119
-504 300 -675 400 -170 101 -317 188 -326 193 -12 8 -49 -10 -160 -75 -212
-125 -1785 -1058 -1992 -1182 -98 -58 -182 -106 -188 -106 -13 0 -609 353
-608 360 0 3 217 134 482 293 265 158 921 550 1457 872 536 321 977 584 979
584 2 1 29 -14 60 -33z m242 -1633 c154 -91 276 -169 272 -174 -4 -4 -381
-231 -837 -504 l-828 -496 -122 71 c-66 40 -192 113 -278 164 -86 50 -157 93
-158 96 0 6 447 277 1300 789 201 121 367 220 368 220 2 1 130 -74 283 -166z"/>
<path fill="#14486b" d="M425 4658 c-22 -11 -92 -51 -155 -88 -273 -159 -267 -154 -227 -193
12 -13 119 -83 237 -156 336 -209 381 -237 965 -601 303 -188 676 -422 830
-518 154 -97 525 -328 825 -515 300 -187 619 -386 710 -442 91 -57 467 -291
835 -521 369 -230 682 -420 697 -422 41 -6 41 -6 673 393 138 87 435 274 660
415 226 141 590 372 810 512 220 140 569 361 775 492 206 132 557 354 780 496
223 142 542 344 710 450 168 107 379 240 470 298 91 57 170 111 177 120 19 23
2 43 -79 99 -87 60 -344 203 -366 203 -22 0 -128 -65 -917 -558 -536 -335
-1308 -816 -1795 -1119 -641 -398 -850 -528 -880 -548 -19 -13 -154 -96 -300
-186 -146 -89 -362 -223 -480 -297 -118 -74 -220 -135 -226 -135 -10 0 -166
95 -899 548 -126 78 -297 184 -380 235 -82 51 -167 103 -189 117 -21 14 -129
80 -240 147 -316 193 -496 303 -706 433 -107 66 -447 274 -755 463 -308 189
-605 371 -660 405 -590 366 -807 495 -832 495 -15 -1 -46 -10 -68 -22z"/>
</g>
</svg>
